<svg width="222" height="48" viewBox="0 0 222 48" fill="none" xmlns="http://www.w3.org/2000/svg">
<g clip-path="url(#clip0_5813_2031)">
<path d="M28.4648 34.933L51.4018 0.558151V34.933H28.4648Z" fill="#F59E32"/>
<path d="M0 -0.000808716H51.4008L0 34.9328V-0.000808716Z" fill="#EA580B"/>
<path d="M218.341 1.32993C219.057 1.3378 219.754 1.55948 220.346 1.96709C220.938 2.37471 221.397 2.95007 221.667 3.62085C221.936 4.29164 222.003 5.02791 221.859 5.73713C221.716 6.44635 221.368 7.09685 220.86 7.60688C220.352 8.11692 219.706 8.46371 219.003 8.60367C218.301 8.74364 217.573 8.67053 216.911 8.39353C216.25 8.11653 215.684 7.64801 215.285 7.04686C214.886 6.44571 214.672 5.73875 214.669 5.01485C214.671 4.5292 214.767 4.04864 214.953 3.60061C215.138 3.15259 215.409 2.74588 215.75 2.4037C216.091 2.06153 216.495 1.79058 216.94 1.60634C217.384 1.42211 217.86 1.32818 218.341 1.32993ZM218.341 8.14105C218.952 8.14105 219.55 7.95771 220.059 7.61419C220.567 7.27068 220.964 6.78244 221.198 6.2112C221.432 5.63996 221.493 5.01139 221.374 4.40496C221.254 3.79854 220.96 3.24151 220.527 2.8043C220.095 2.36709 219.544 2.06935 218.944 1.94873C218.344 1.8281 217.722 1.89001 217.157 2.12662C216.592 2.36324 216.109 2.76393 215.769 3.27803C215.429 3.79213 215.248 4.39655 215.248 5.01485C215.248 5.84397 215.574 6.63913 216.154 7.22541C216.734 7.81169 217.52 8.14105 218.341 8.14105ZM216.906 2.92629H218.354C219.117 2.92629 219.88 3.24556 219.88 4.15016C219.886 4.4216 219.792 4.68561 219.617 4.89174C219.443 5.09788 219.199 5.23169 218.933 5.26761L220.038 7.07682H219.13L218.169 5.32082H217.643V7.05021H216.906V2.92629ZM218.222 4.7488C218.643 4.7488 219.117 4.62907 219.117 4.12356C219.117 3.61804 218.696 3.56483 218.301 3.56483H217.63V4.7488H218.222ZM209.379 29.8781C206.497 29.8781 205.155 28.4547 205.155 25.395V13.6751H210.695V8.60666H205.155V1.32993H199.496V25.395C199.496 31.4745 202.944 35.1195 208.497 35.1195C209.272 35.1125 210.045 35.0592 210.813 34.9599V29.8116C210.09 29.8116 209.695 29.8781 209.392 29.8781H209.379ZM193.074 11.6929C191.915 10.4864 190.522 9.53422 188.982 8.89568C187.443 8.25713 185.79 7.94591 184.126 7.98142C176.941 7.98142 171.414 14.0077 171.414 21.5771C171.414 29.1464 176.822 35.1195 184.231 35.1195C186.221 35.0795 188.178 34.5933 189.96 33.6962C191.742 32.799 193.304 31.5131 194.535 29.9313L190.113 26.7918C189.426 27.7201 188.539 28.4797 187.521 29.0141C186.503 29.5484 185.378 29.8437 184.231 29.8781C182.589 29.8394 181.01 29.2274 179.762 28.146C178.515 27.0646 177.676 25.5803 177.388 23.945H196.404C196.855 21.7845 196.789 19.546 196.209 17.4169C195.63 15.2877 194.555 13.3296 193.074 11.7063V11.6929ZM177.428 19.1559C177.705 17.5432 178.524 16.0765 179.747 15.0031C180.969 13.9296 182.521 13.315 184.139 13.2627C185.741 13.3252 187.271 13.9464 188.471 15.0208C189.67 16.0952 190.465 17.5563 190.719 19.1559H177.428ZM162.873 8.60666V10.9746C160.842 9.04616 158.159 7.97539 155.373 7.98142C153.635 7.98594 151.915 8.3426 150.316 9.03031C148.717 9.71802 147.271 10.7228 146.062 11.9853C144.854 13.2478 143.908 14.7424 143.281 16.3808C142.654 18.0191 142.358 19.7679 142.41 21.5238C142.356 23.2815 142.651 25.0324 143.277 26.673C143.903 28.3136 144.848 29.8107 146.057 31.0757C147.265 32.3407 148.712 33.3479 150.312 34.0379C151.912 34.7279 153.633 35.0866 155.373 35.0929C158.086 35.0954 160.705 34.0866 162.729 32.2593C162.729 32.2593 163.874 42.1834 155.228 42.1834C153.707 42.1076 152.23 41.64 150.938 40.8252C149.646 40.0103 148.581 38.8751 147.845 37.5273L143.318 40.7599C144.377 42.4731 145.779 43.9426 147.435 45.0734C149.09 46.2043 150.962 46.9713 152.929 47.3249C154.896 47.6785 156.915 47.6108 158.855 47.1261C160.794 46.6415 162.612 45.7507 164.189 44.5114C165.616 43.2038 166.737 41.5922 167.472 39.7931C168.207 37.9941 168.538 36.0524 168.44 34.1085V8.60666H162.873ZM155.373 29.8914C151.28 29.8914 148.095 26.2198 148.095 21.5505C148.095 16.8811 151.333 13.3026 155.373 13.3026C159.412 13.3026 162.729 17.054 162.729 21.5105C162.729 25.967 159.426 29.8515 155.373 29.8515V29.8914ZM126.224 35.1727C124.487 35.1699 122.767 34.815 121.167 34.1289C119.567 33.4428 118.12 32.4394 116.91 31.1782C115.701 29.9169 114.754 28.4233 114.125 26.7857C113.496 25.148 113.198 23.3995 113.249 21.6436C113.184 19.8776 113.471 18.1163 114.093 16.4648C114.715 14.8132 115.659 13.3051 116.87 12.0303C118.081 10.7555 119.533 9.74004 121.14 9.04444C122.747 8.34884 124.476 7.98732 126.224 7.98142C128.94 7.97752 131.561 8.99184 133.58 10.8283V-0.000366211H139.252V34.5874H133.725V32.1662C131.689 34.0813 129.006 35.1377 126.224 35.1195V35.1727ZM126.224 13.3292C122.145 13.3292 118.947 16.9742 118.947 21.6436C118.947 26.3129 122.198 29.8515 126.224 29.8515C130.251 29.8515 133.58 26.1001 133.58 21.6436C133.58 17.1871 130.277 13.3026 126.224 13.3026V13.3292ZM110.433 21.9895V8.60666H104.774V22.0161C104.774 26.7785 102.353 29.8515 98.5763 29.8515C94.7996 29.8515 92.3914 26.7785 92.3914 22.0161V8.60666H86.7065V22.0161C86.7065 29.9978 91.9703 35.1195 98.55 35.1195C105.13 35.1195 110.394 30.0111 110.394 22.0161L110.433 21.9895ZM60.0586 34.9332V-0.000366211H72.0469C76.7185 -0.000366211 82.3639 2.48729 82.3639 9.05896C82.3639 13.0499 80.5347 15.4976 78.9029 16.4288C80.5356 17.1075 81.9193 18.2826 82.8623 19.7912C83.8053 21.2998 84.2612 23.0675 84.1667 24.8496C84.1667 30.4368 79.6135 34.9332 72.3232 34.9332H60.0586ZM71.7047 29.6919C72.9126 29.7399 74.1184 29.5548 75.2578 29.1464C76.1519 28.765 76.9149 28.1256 77.4514 27.3081C77.9879 26.4906 78.274 25.5313 78.274 24.5503C78.274 23.5692 77.9879 22.61 77.4514 21.7924C76.9149 20.9749 76.1519 20.3355 75.2578 19.9541C73.9995 19.4706 72.6531 19.2664 71.3099 19.3555H65.7961V29.6919H71.7047ZM70.7704 14.3535C72.0304 14.4115 73.2898 14.2264 74.4814 13.8081C75.9815 12.9833 76.4553 11.6796 76.4553 9.7108C76.4825 8.90455 76.2766 8.10775 75.863 7.41787C75.4493 6.72799 74.8457 6.17493 74.1261 5.82634C73.0233 5.34701 71.823 5.14174 70.6256 5.2277H65.7961V14.3535H70.7704Z" fill="#00275E"/>
</g>
<defs>
<clipPath id="clip0_5813_2031">
<rect width="222" height="47.5714" fill="white"/>
</clipPath>
</defs>
</svg>
